<?xml version="1.0" encoding="UTF-8" standalone="no"?>
<!-- Created with Inkscape (http://www.inkscape.org/) -->

<svg
   xmlns:dc="http://purl.org/dc/elements/1.1/"
   xmlns:cc="http://creativecommons.org/ns#"
   xmlns:rdf="http://www.w3.org/1999/02/22-rdf-syntax-ns#"
   xmlns:svg="http://www.w3.org/2000/svg"
   xmlns="http://www.w3.org/2000/svg"
   xmlns:sodipodi="http://sodipodi.sourceforge.net/DTD/sodipodi-0.dtd"
   xmlns:inkscape="http://www.inkscape.org/namespaces/inkscape"
   id="svg3582"
   version="1.1"
   inkscape:version="0.91 r13725"
   width="16"
   height="16"
   viewBox="0 0 16 16"
   sodipodi:docname="avatar.svg">
  <metadata
     id="metadata3588">
    <rdf:RDF>
      <cc:Work
         rdf:about="">
        <dc:format>image/svg+xml</dc:format>
        <dc:type
           rdf:resource="http://purl.org/dc/dcmitype/StillImage" />
        <dc:title></dc:title>
      </cc:Work>
    </rdf:RDF>
  </metadata>
  <defs
     id="defs3586" />
  <sodipodi:namedview
     pagecolor="#ffffff"
     bordercolor="#666666"
     borderopacity="1"
     objecttolerance="10"
     gridtolerance="10"
     guidetolerance="10"
     inkscape:pageopacity="0"
     inkscape:pageshadow="2"
     inkscape:window-width="1440"
     inkscape:window-height="855"
     id="namedview3584"
     showgrid="false"
     inkscape:zoom="40.8125"
     inkscape:cx="8"
     inkscape:cy="8"
     inkscape:window-x="0"
     inkscape:window-y="1"
     inkscape:window-maximized="1"
     inkscape:current-layer="svg3582" />
  <path
     style="fill:#000000"
     d="M 1.1267063,15.942967 C 1.2512618,15.766347 1.2565671,15.750146 1.2193081,15.660195 1.1577972,15.511695 0.98875423,15.288919 0.87250015,15.20315 0.70082362,15.076491 0.38705285,15.0198 0.11714117,15.066674 0.00905583,15.085445 0,15.081305 0,15.013118 c 0,-0.07147 0.00811696,-0.0739 0.24661074,-0.0739 0.47324235,0 0.82903426,0.171308 1.00561226,0.484187 0.053328,0.09449 0.1011912,0.171803 0.1063632,0.171803 0.00517,0 0.076783,-0.108941 0.1591356,-0.242092 0.082353,-0.13315 0.2848493,-0.445917 0.4499926,-0.695037 0.3203427,-0.48324 0.4688219,-0.728046 0.4688219,-0.772974 0,-0.01527 -0.084568,-0.139279 -0.1879289,-0.275576 -0.3616614,-0.476905 -0.6759599,-1.278264 -0.5505361,-1.403687 0.057618,-0.05762 0.1461228,-0.06003 0.2200242,-0.006 0.039589,0.02895 0.062994,0.106523 0.08064,0.267274 0.038201,0.348004 0.2375636,0.713518 0.7356382,1.348728 0.5240692,0.668363 0.9428598,1.394837 1.1240403,1.949868 0.043643,0.133697 0.093493,0.26951 0.1107771,0.301806 0.028763,0.05374 0.018492,0.05872 -0.121212,0.05872 l -0.1526375,0 -0.1669261,-0.351423 C 3.436606,15.581543 3.3326009,15.360038 3.2972927,15.282593 3.1716721,15.007057 2.8051798,14.392101 2.6120015,14.132708 2.469182,13.940936 2.4773345,13.935379 2.3444463,14.315067 2.260869,14.553864 2.1237045,14.78091 1.4994069,15.713844 1.242973,16.097053 1.2297925,16.110967 1.114234,16.120475 l -0.11965288,0.0098 0.13212518,-0.187353 z m 0.5601265,0.152044 c 0,-0.01718 0.013227,-0.03124 0.029394,-0.03124 0.016167,0 0.038082,0.01406 0.0487,0.03124 0.010618,0.01718 -0.00261,0.03124 -0.029394,0.03124 -0.026785,0 -0.0487,-0.01406 -0.0487,-0.03124 z m 3.0394947,-0.08263 c 0.01179,-0.01968 4.311e-4,-0.04383 -0.025241,-0.05369 -0.025672,-0.0099 -0.046677,-0.03437 -0.046677,-0.0545 0,-0.02012 -0.019439,-0.05219 -0.043199,-0.07126 C 4.5874509,15.81386 4.3932792,15.559286 4.1797177,15.267214 2.7571108,13.32162 2.444199,12.795205 2.0536473,11.690504 1.7957151,10.960925 1.7692577,10.697805 1.8918847,10.081765 1.9294054,9.8932725 1.9292263,9.8458607 1.8905871,9.7381508 1.7958424,9.4740418 1.8624906,8.7705254 2.0263514,8.3050664 l 0.064627,-0.1835784 -0.068356,0.058628 c -0.037596,0.032245 -0.093617,0.089252 -0.1244911,0.1266814 -0.090312,0.1094867 -0.2653373,0.2043545 -0.3357761,0.181998 -0.07784,-0.024705 -0.078574,-0.00488 -0.018533,0.5005849 0.024428,0.2056555 0.053596,0.5144883 0.064817,0.6862954 0.011221,0.171807 0.037896,0.5021455 0.059277,0.7340845 0.054226,0.58822 0.048768,1.086591 -0.012321,1.125213 -0.04387,0.02773 -0.02053,0.04485 0.044335,0.03252 0.015794,-0.003 0.010686,0.01626 -0.01135,0.04281 -0.027751,0.03344 -0.032521,0.08439 -0.015519,0.165761 0.049553,0.237161 0.025746,0.29593 -0.060244,0.148721 -0.047337,-0.08104 -0.070653,-0.166119 -0.066344,-0.242092 0.00365,-0.06443 -0.00403,-0.117141 -0.017065,-0.117141 -0.01304,0 -0.031379,-0.05974 -0.040753,-0.13276 -0.00937,-0.07302 -0.032725,-0.22413 -0.051891,-0.335805 -0.019166,-0.111674 -0.041697,-0.280358 -0.050068,-0.374851 -0.00837,-0.09449 -0.021856,-0.221007 -0.029967,-0.281139 -0.00811,-0.06013 -0.015073,-0.144474 -0.01547,-0.187426 -3.976e-4,-0.04295 -0.00967,-0.09918 -0.0206,-0.124951 C 1.2927417,10.062816 1.291673,10.053841 1.235135,9.410391 1.2072184,9.0926776 1.1727,8.8210526 1.1584273,8.8067798 1.1441546,8.792507 1.1043864,8.8275434 1.0700535,8.8846384 0.82724864,9.288418 0.43137319,10.071145 0.22760633,10.55033 0.17646524,10.670594 0.10479089,10.839278 0.06832999,10.925181 L 0.00203745,11.081369 0.00101866,10.650301 c -7.9335693e-4,-0.335686 0.01004771,-0.45247 0.04899457,-0.527784 0.04585938,-0.08868 0.04585938,-0.09512 0,-0.07752 C 0.00953341,10.060527 0,10.041441 0,9.9448681 0,9.84193 0.02112934,9.8060873 0.15391992,9.6837664 0.23857588,9.6057847 0.34586998,9.4666357 0.39235125,9.3745462 0.52722922,9.1073237 0.78298831,8.6926443 0.94528336,8.4780404 1.0276521,8.3691235 1.0976777,8.256668 1.100896,8.2281393 1.1041142,8.1996103 1.0965701,8.0497561 1.0841313,7.8951297 1.0380222,7.3219477 1.0328175,7.2150831 1.051942,7.2342074 c 0.010769,0.010769 0.036836,-0.00402 0.057928,-0.032865 0.03545,-0.048481 0.044173,-0.048629 0.1153949,-0.00196 0.068979,0.045197 0.08123,0.085899 0.1170055,0.3887354 0.065355,0.5532205 0.054175,0.5500686 0.3560219,0.1003856 C 1.8411243,7.4757138 1.9754968,7.2686569 1.9968979,7.2283744 2.0334814,7.1595151 2.0314443,7.1565778 1.9628432,7.179271 1.8538472,7.2153271 1.6011868,7.1981217 1.5055169,7.1481283 1.4592047,7.1239273 1.3541709,7.0366593 1.2721085,6.9541994 1.0182764,6.6991365 0.6820765,5.9391609 0.49992727,5.2086923 0.46136973,5.054066 0.41393996,4.917226 0.39452777,4.9046035 0.3751156,4.891981 0.27840551,4.8814383 0.17961646,4.8811753 L 0,4.880697 0,4.7241396 0,4.5675821 0.13275999,4.5878529 c 0.073018,0.011149 0.15954788,0.034066 0.19228863,0.050927 0.056414,0.029052 0.0585405,0.020075 0.0406433,-0.1715821 C 0.34934754,4.2921695 0.32347612,4.2278006 0.17340331,3.9887773 L 0,3.7125953 0.00410541,3.211138 C 0.00740832,2.8077029 0.01288037,2.7495587 0.03209903,2.913686 0.06208094,3.1697316 0.1306609,3.4027272 0.23905055,3.6167898 l 0.0842718,0.166431 0.0960494,-0.1922665 c 0.098778,-0.1977283 0.2668955,-0.3346838 0.40842583,-0.3327202 0.0458257,6.372e-4 0.0327514,0.016581 -0.0490598,0.059831 -0.15967456,0.084415 -0.3101731,0.4145501 -0.3101731,0.6803993 0,0.2992917 0.0609957,0.6690413 0.12982681,0.7869966 0.0561435,0.096213 0.0577012,0.111618 0.0144817,0.1432208 -0.0435151,0.031819 -0.0422615,0.061233 0.0123558,0.2899069 C 0.75192587,5.7490489 1.1058043,6.5730702 1.3168771,6.8291211 1.4612238,7.0042271 1.5859285,7.0484465 1.8068448,7.0028602 1.9964039,6.9637441 2.183756,6.8805595 2.2429586,6.8092246 2.2711555,6.7752496 2.2579679,6.6162509 2.1851215,6.1119041 2.0987044,5.5136014 2.0842748,5.4532343 2.0137466,5.3949449 1.9252711,5.3218222 1.9131212,5.2555488 1.9881912,5.2555488 c 0.045939,0 0.04913,-0.036003 0.029752,-0.3357285 -0.023143,-0.3579643 0.00276,-0.3937667 0.0848,-0.1172174 l 0.046335,0.1561882 0.050016,-0.1161378 c 0.027509,-0.063876 0.050016,-0.1376749 0.050016,-0.1639976 0,-0.026323 0.011199,-0.04786 0.024887,-0.04786 0.030949,0 0.2759709,-0.4840717 0.3047406,-0.6020535 0.011619,-0.047648 0.045361,-0.1038754 0.074982,-0.1249505 0.029621,-0.021075 0.063425,-0.076975 0.07512,-0.1242218 0.011695,-0.047247 0.035882,-0.085904 0.053749,-0.085904 0.017867,0 0.024166,-0.013461 0.013998,-0.029914 -0.019615,-0.031738 0.2731733,-0.5274941 0.4324336,-0.732206 0.052094,-0.066962 0.1001225,-0.1055307 0.1067299,-0.085709 0.00661,0.019821 0.024357,0.02841 0.039443,0.019087 0.048496,-0.029973 0.1546594,0.1073569 0.1546594,0.2000618 0,0.1691341 -0.1470646,0.4745695 -0.3779758,0.7850095 C 3.107208,3.9100506 3.0027404,4.0749445 2.9197278,4.216426 2.7721669,4.4679203 2.691927,4.5521201 2.7974385,4.3447506 2.922833,4.0983034 2.7811434,4.3219252 2.5712164,4.7017862 2.445625,4.9290423 2.3428583,5.0974082 2.3428459,5.0759323 c -1.24e-5,-0.021476 -0.021108,-0.039047 -0.046879,-0.039047 -0.029443,0 -0.046856,0.029707 -0.046856,0.079938 0,0.04472 0.013605,0.071529 0.03088,0.060853 0.017683,-0.010929 0.022959,0.00156 0.012345,0.029215 -0.010194,0.026565 -0.031118,0.040522 -0.046499,0.031016 -0.047988,-0.029658 -0.031295,0.1793653 0.068014,0.8516719 0.1293991,0.8760141 0.1569692,0.9671659 0.1351148,0.4467133 -0.018624,-0.443533 -0.017229,-1.0364551 0.00249,-1.0561694 0.00639,-0.00639 0.039756,-0.00268 0.074151,0.00823 0.064438,0.020452 0.1295976,0.2324571 0.1295976,0.4216651 0,0.070937 0.01912,0.095785 0.093713,0.121788 0.056898,0.019835 0.093713,0.021035 0.093713,0.00306 0,-0.044728 0.1556423,-0.035538 0.1597853,0.00943 0.00198,0.021476 0.00108,0.06373 -0.00199,0.093898 -0.00308,0.030168 0.026434,0.099827 0.065576,0.1547978 0.062289,0.087478 0.070401,0.1333563 0.065016,0.3677517 -0.00338,0.1472927 -0.034366,0.4290572 -0.06885,0.626143 -0.039147,0.2237393 -0.062313,0.4932733 -0.061674,0.7175712 0.00108,0.3784397 0.068986,1.3305746 0.096889,1.3584773 0.02061,0.02061 0.1677429,-0.3566195 0.2161225,-0.554108 0.019992,-0.081608 0.043564,-0.1483788 0.052382,-0.1483788 0.057543,0 0.2266747,0.1415237 0.2658848,0.222483 0.041346,0.085371 0.041647,0.1202958 0.00248,0.2881888 -0.024512,0.1050753 -0.084674,0.3060455 -0.1336931,0.4466005 l -0.089125,0.2555549 0.092863,0.088624 c 0.051075,0.048743 0.1465011,0.1705444 0.212058,0.2706694 0.065557,0.100126 0.1268851,0.169603 0.1362846,0.154394 0.0094,-0.01521 0.026992,-0.102297 0.039095,-0.193529 0.018217,-0.137326 0.0276,-0.155835 0.054516,-0.107537 0.017882,0.03209 0.050973,0.07689 0.073536,0.09957 0.060854,0.06116 0.082414,0.179412 0.062653,0.343645 l -0.017586,0.146163 0.063402,-0.140569 c 0.034872,-0.07731 0.076365,-0.173668 0.092208,-0.214123 0.023764,-0.06068 0.043755,-0.07002 0.1142389,-0.05335 0.046989,0.01111 0.1416618,0.05936 0.2103846,0.107222 0.1144051,0.07967 0.1241081,0.09736 0.114968,0.209539 -0.00549,0.06739 -0.038191,0.185776 -0.072669,0.26309 -0.086296,0.19351 -0.4015318,1.32996 -0.4015318,1.447553 0,0.135827 0.035257,0.08516 0.203,-0.29176 0.080285,-0.180397 0.2382008,-0.520766 0.350925,-0.756374 l 0.204953,-0.428378 0.089126,0.06346 c 0.099164,0.07061 0.1165096,0.183595 0.050446,0.328588 -0.031462,0.06905 -0.030897,0.08749 0.00303,0.09879 0.022938,0.0076 0.086029,0.05156 0.1402017,0.09758 0.087741,0.07454 0.1207388,0.08285 0.3022067,0.07603 0.2270208,-0.0085 0.2742834,0.0086 0.2889488,0.104701 0.00553,0.03623 0.029157,0.0889 0.052504,0.117031 0.032984,0.03974 0.035004,0.07541 0.00906,0.159946 -0.032621,0.106289 -0.030845,0.10986 0.07705,0.154942 0.1401999,0.05858 0.1421257,0.05833 0.1186987,-0.01548 -0.011227,-0.03537 0.00943,-0.125203 0.048481,-0.210854 0.040585,-0.08901 0.06598,-0.20232 0.062934,-0.280801 -0.01408,-0.362737 0.2649917,-0.66509 0.8427554,-0.91306 0.3973972,-0.170559 0.4697536,-0.189905 0.4011635,-0.107259 -0.023167,0.02792 0.077024,-0.0092 0.2226482,-0.08242 0.1965944,-0.09888 0.3090097,-0.135572 0.436578,-0.142496 0.094494,-0.0051 0.2746388,-0.0313 0.4003222,-0.05815 0.2639075,-0.05639 0.6336778,-0.06441 0.683267,-0.01482 0.024514,0.02451 0.1033685,0.01986 0.2825417,-0.01669 0.2726393,-0.05561 0.3818099,-0.03744 0.4521861,0.07525 0.022422,0.0359 0.073885,0.06405 0.1181213,0.0646 0.108968,0.0014 0.20926,0.138471 0.151873,0.207619 -0.03655,0.04404 -0.02917,0.04689 0.0677,0.02614 0.05979,-0.01281 0.123813,-0.03539 0.142262,-0.05018 0.03899,-0.03126 0.107026,0.0256 0.107026,0.08945 0,0.03382 0.03692,0.03824 0.175189,0.02097 0.173814,-0.02172 0.175013,-0.0213 0.152836,0.05242 -0.04193,0.139387 -0.09778,0.167807 -0.336975,0.171468 -0.123932,0.0019 -0.267503,0.02046 -0.319045,0.04125 -0.3362507,0.135632 -0.5154211,0.114991 -0.5154211,-0.05938 l 0,-0.09411 -0.2067639,0.07783 c -0.2450877,0.09225 -0.2430829,0.09208 -0.3090009,0.02616 -0.037304,-0.0373 -0.046212,-0.08071 -0.032053,-0.156188 0.010785,-0.05749 0.015458,-0.104374 0.010384,-0.104188 -0.00507,1.88e-4 -0.078229,0.02127 -0.1625682,0.04686 -0.190028,0.05765 -0.1903029,0.05764 -0.2521478,-0.0042 -0.034263,-0.03426 -0.044561,-0.07877 -0.031738,-0.137151 l 0.018983,-0.08643 -0.15011,0.03143 c -0.082561,0.01728 -0.1641673,0.04224 -0.181348,0.05545 -0.017181,0.01321 -0.078465,0.03413 -0.1361877,0.04649 -0.1267548,0.02713 -0.4550387,0.169261 -0.4356714,0.188629 0.00759,0.0076 0.1176744,-0.0079 0.2446282,-0.03433 0.2683133,-0.05595 0.3167257,-0.04813 0.4931234,0.07966 0.1752926,0.126981 0.1770769,0.203493 0.0041,0.175833 -0.1547244,-0.02474 -0.3699749,0.06089 -0.5214163,0.20744 -0.055837,0.05403 -0.1015223,0.08835 -0.1015223,0.07625 0,-0.03068 -0.1686914,0.115733 -0.3904706,0.338899 -0.1714159,0.172488 -0.2590894,0.279015 -0.3436141,0.417507 -0.017181,0.02815 -0.060852,0.09306 -0.097048,0.144247 -0.1323805,0.187205 -0.3566202,0.724608 -0.355372,0.851669 5.623e-4,0.05725 0.00974,0.04383 0.2518461,-0.368134 0.075726,-0.128855 0.1931545,-0.308936 0.2609511,-0.400181 0.1070474,-0.144069 0.1337912,-0.163341 0.2032515,-0.146463 0.043992,0.01069 0.1101692,0.0502 0.1470612,0.0878 0.1216028,0.123948 0.1170356,0.183678 -0.030556,0.399592 -0.1900786,0.278071 -0.3746443,0.621526 -0.3339951,0.621526 0.018654,0 0.042007,-0.02109 0.051896,-0.04686 0.00989,-0.02577 0.032399,-0.04686 0.050021,-0.04686 0.048336,0 0.1487009,-0.127147 0.1487009,-0.188381 0,-0.02963 0.023784,-0.07316 0.052853,-0.09674 0.045571,-0.03697 0.049135,-0.03641 0.025868,0.004 -0.017716,0.03076 -0.00438,0.02705 0.038834,-0.01082 0.0362,-0.03172 0.093507,-0.116062 0.1273475,-0.187426 0.033841,-0.07136 0.1045002,-0.170524 0.1570204,-0.220356 l 0.095491,-0.0906 0.1346608,0.05143 c 0.074064,0.02829 0.1815373,0.09424 0.2388309,0.146572 0.1062745,0.09707 0.1168213,0.165831 0.049715,0.324137 -0.018892,0.04457 -0.015193,0.05352 0.01453,0.03515 0.05755,-0.03557 0.273037,0.04161 0.4625296,0.16565 l 0.1637927,0.10722 0.1276426,-0.08447 c 0.1255638,-0.08309 0.129962,-0.08368 0.2700957,-0.03593 0.1942063,0.06617 0.4066794,0.194381 0.4470022,0.269724 0.030575,0.05713 0.038863,0.05833 0.1012381,0.01464 0.037365,-0.02617 0.099667,-0.04758 0.1384479,-0.04758 0.09851,0 0.312514,0.08731 0.471622,0.192408 0.07388,0.0488 0.140951,0.08873 0.149049,0.08873 0.0081,0 0.06819,-0.03539 0.133546,-0.07863 0.115606,-0.0765 0.122539,-0.07732 0.256017,-0.03023 0.18137,0.06399 0.395097,0.190854 0.431688,0.256239 0.02644,0.04725 0.04282,0.0435 0.165211,-0.03779 0.07472,-0.04963 0.182851,-0.09811 0.240288,-0.107724 0.09217,-0.01543 0.112744,-0.03793 0.175259,-0.191694 0.06778,-0.166703 0.08708,-0.258321 0.127863,-0.606728 0.01006,-0.0859 0.02451,-0.178202 0.03212,-0.205108 0.02371,-0.08384 -0.04551,-0.373586 -0.111347,-0.466038 -0.07467,-0.10487 -0.0802,-0.241979 -0.01595,-0.395752 0.06517,-0.155977 0.05923,-0.201631 -0.03613,-0.277668 l -0.08298,-0.06617 0.05956,-0.103452 c 0.03403,-0.05911 0.04617,-0.108372 0.02832,-0.114931 -0.10919,-0.04013 -0.359233,-0.206116 -0.359233,-0.238475 0,-0.08351 0.623151,-0.386322 0.647106,-0.314457 0.0076,0.02288 0.04726,0.02335 0.128975,0.0015 0.153097,-0.04086 0.272341,-0.0091 0.337075,0.08965 0.05039,0.0769 0.04902,0.0821 -0.0478,0.181991 -0.0878,0.09058 -0.09393,0.107598 -0.05147,0.142834 0.03789,0.03144 0.05796,0.0319 0.09385,0.0021 0.03552,-0.02948 0.07063,-0.02964 0.158281,-7.12e-4 0.06195,0.02045 0.120231,0.02957 0.129518,0.02029 0.03192,-0.03192 0.286919,-0.817538 0.381828,-1.1763728 0.141839,-0.5362753 0.186462,-0.8453247 0.205994,-1.4266632 0.0222,-0.6608292 0.06139,-0.94791 0.180505,-1.3222495 0.113956,-0.3581358 0.147532,-0.3264149 0.05317,0.050235 -0.06602,0.2635377 -0.130534,1.0118451 -0.08723,1.0118451 0.03551,0 -0.0051,0.8690738 -0.05593,1.1954491 -0.08377,0.538423 -0.413798,1.5792225 -0.486503,1.5342885 -0.02069,-0.01279 -0.02421,0.0052 -0.0099,0.05041 0.01425,0.04491 0.01078,0.06317 -0.0096,0.05056 -0.02077,-0.01284 -0.02389,0.01036 -0.0089,0.06637 0.04277,0.159942 0.108312,0.118587 0.171646,-0.108307 0.07865,-0.281763 0.194961,-0.570497 0.247295,-0.613886 0.04692,-0.0389 0.177492,-0.3454757 0.177492,-0.4167325 0,-0.024912 0.01757,-0.039286 0.03905,-0.031944 0.02682,0.00917 0.03905,0.090688 0.03905,0.2603135 0,0.154498 0.01642,0.275868 0.04385,0.324163 0.02545,0.04481 0.04717,0.185524 0.05177,0.335387 0.0075,0.243259 0.01326,0.262677 0.100239,0.335863 0.191259,0.160934 0.206936,0.475267 0.04783,0.959074 l -0.08899,0.270591 0.07103,0.08257 c 0.07826,0.09099 0.09535,0.291435 0.04101,0.480935 -0.07116,0.248105 -0.455715,0.635593 -0.716062,0.721516 -0.117579,0.0388 -0.145179,0.03816 -0.232516,-0.0054 -0.05451,-0.0272 -0.190471,-0.07068 -0.302145,-0.09662 -0.111675,-0.02594 -0.222583,-0.05198 -0.246464,-0.05786 -0.0304,-0.0075 -0.05695,0.04848 -0.08855,0.186732 l -0.04513,0.197432 -0.130113,-0.0051 c -0.188053,-0.0074 -0.192449,-0.0062 -0.274232,0.07186 -0.283661,0.270772 -0.617208,0.54692 -0.679298,0.5624 -0.153926,0.03838 -0.543645,-0.212404 -0.571942,-0.368038 -0.0086,-0.04712 -0.05487,0.0028 -0.188349,0.203045 -0.246627,0.369987 -0.39075,0.5314 -0.472601,0.529295 -0.190321,-0.0049 -0.5398034,-0.223775 -0.5576123,-0.34923 -0.00872,-0.0614 -0.028597,-0.04651 -0.1506101,0.112732 -0.2954201,0.385569 -0.2787941,0.371553 -0.414944,0.349782 -0.1235606,-0.01976 -0.3671733,-0.13949 -0.4477417,-0.220059 -0.023763,-0.02376 -0.043206,-0.07508 -0.043206,-0.11404 0,-0.06776 -0.00448,-0.0665 -0.1030096,0.02901 -0.056655,0.05491 -0.1328028,0.09984 -0.1692171,0.09984 -0.101588,0 -0.3580419,-0.119331 -0.4548142,-0.211631 -0.066203,-0.06314 -0.1141505,-0.08108 -0.2030447,-0.07595 -0.1435648,0.0083 -0.4726237,-0.161056 -0.5269547,-0.271188 -0.028803,-0.05838 -0.027471,-0.105553 0.00613,-0.217206 0.023608,-0.07844 0.038281,-0.147268 0.032608,-0.152941 -0.00567,-0.0057 -0.054172,0.03963 -0.1077726,0.10068 -0.1442533,0.164296 -0.2162442,0.181364 -0.4019895,0.09531 -0.2057005,-0.0953 -0.2940702,-0.191298 -0.2721074,-0.295588 0.06311,-0.299672 0.061744,-0.30677 -0.083884,-0.436116 l -0.1368627,-0.121561 0.00161,-0.245557 0.00161,-0.245557 -0.1628481,0.327995 -0.1628477,0.327995 0.033011,0.196642 c 0.025548,0.152187 0.02362,0.225098 -0.00853,0.32251 -0.040772,0.123542 -0.039701,0.127587 0.05794,0.21884 0.054714,0.05114 0.09948,0.103514 0.09948,0.116399 0,0.05463 -0.080948,0.191603 -0.1133664,0.191827 -0.0194,1.25e-4 -0.1150579,0.03677 -0.212574,0.08142 -0.1570335,0.07189 -0.1880944,0.0767 -0.2717144,0.04206 -0.051927,-0.02151 -0.116026,-0.07209 -0.1424421,-0.112409 -0.029981,-0.04576 -0.078961,-0.07356 -0.1303403,-0.07399 -0.08594,-7.15e-4 -0.2928251,-0.089 -0.3870163,-0.165143 -0.030142,-0.02437 -0.068968,-0.08494 -0.08628,-0.134596 C 4.7853979,13.911995 4.6993125,13.847039 4.4111434,13.68178 4.2090405,13.565878 4.0334981,13.471049 4.0210505,13.471049 c -0.012448,0 -0.022632,0.02797 -0.022632,0.06216 0,0.04638 0.052669,0.08605 0.2073655,0.156189 0.1140508,0.05171 0.2265063,0.09402 0.2499012,0.09402 0.023395,0 0.042536,0.01585 0.042536,0.03523 0,0.05523 -0.2317336,0.0062 -0.4745398,-0.100328 C 3.6459254,13.55253 3.2940837,13.276351 3.1828511,13.058318 3.0004072,12.700698 2.9594133,12.41829 3.0431093,12.095633 c 0.024362,-0.09392 0.041934,-0.171199 0.039047,-0.171731 -0.052811,-0.0097 -0.2704768,-0.130477 -0.3508373,-0.194598 -0.1421298,-0.113408 -0.1906016,-0.318795 -0.1464057,-0.620356 0.017331,-0.118252 0.027686,-0.219354 0.023011,-0.22467 -0.00467,-0.0053 -0.062512,0.01928 -0.1285282,0.05467 -0.066016,0.03538 -0.1713762,0.06433 -0.2341344,0.06433 l -0.1141058,0 0.089309,0.304567 c 0.2849407,0.971724 0.6711756,1.70014 1.5776665,2.975386 0.1878513,0.264268 0.2899256,0.412072 0.3883129,0.562278 0.2466956,0.376625 0.3430144,0.539324 0.3430144,0.579412 0,0.06244 0.091256,0.239207 0.1443519,0.279623 0.022571,0.01718 0.062188,0.08256 0.088037,0.14528 0.042719,0.103658 0.042266,0.117881 -0.00498,0.156188 -0.028588,0.02318 -0.042331,0.02605 -0.030542,0.0064 z m 0.108756,-2.317834 c 0.042509,-0.02697 0.019934,-0.129785 -0.028498,-0.129785 -0.015711,0 -0.043937,-0.03374 -0.062724,-0.07497 -0.025747,-0.05651 -0.058892,-0.07497 -0.1346024,-0.07497 -0.099078,0 -0.4629919,-0.16259 -0.5007854,-0.223741 -0.010696,-0.01731 -0.11691,-0.08839 -0.2360319,-0.157958 -0.119122,-0.06957 -0.2310268,-0.153477 -0.2486773,-0.186457 -0.017651,-0.03298 -0.040939,-0.148469 -0.051751,-0.25664 -0.017213,-0.172209 -0.033198,-0.209299 -0.1284942,-0.298148 -0.1043493,-0.09729 -0.1082325,-0.108747 -0.094202,-0.27794 0.012265,-0.147894 0.00822,-0.167702 -0.02495,-0.122333 -0.043544,0.05955 -0.086442,0.425897 -0.084696,0.723291 0.00151,0.257644 0.1263213,0.535455 0.3152813,0.701784 0.076937,0.06772 0.1581621,0.123132 0.1805001,0.123132 0.095539,0 0.070083,-0.07304 -0.070573,-0.202489 -0.082855,-0.07625 -0.1316226,-0.139203 -0.108373,-0.139885 0.052981,-0.0016 0.9231567,0.441908 1.0684608,0.544514 0.1174429,0.08293 0.1496136,0.09098 0.2101156,0.0526 z m 0.8526412,-0.465274 c 0.019245,-0.05831 0.029281,-0.111734 0.022302,-0.118713 -0.017428,-0.01743 -0.2434387,0.288368 -0.2434387,0.329375 0,0.06923 0.1878126,-0.109689 0.2211369,-0.210662 z m 7.9059423,0.02645 c 0.163927,-0.150472 0.342594,-0.412549 0.385604,-0.565618 0.01659,-0.05903 -0.01762,-0.03425 -0.140119,0.101523 -0.121978,0.135191 -0.183144,0.179616 -0.247305,0.179616 -0.126164,0 -0.19298,-0.06492 -0.211886,-0.205875 -0.01608,-0.11988 -0.0083,-0.134246 0.17069,-0.316058 0.177634,-0.180414 0.183547,-0.191231 0.112011,-0.204906 -0.06012,-0.01149 -0.100098,0.01496 -0.19604,0.129728 -0.182978,0.218885 -0.538848,0.755085 -0.526242,0.792904 0.0061,0.01838 0.06658,0.05258 0.134333,0.076 0.06776,0.02342 0.150915,0.07024 0.184799,0.104057 0.0926,0.09241 0.15149,0.0763 0.334155,-0.09137 z M 6.3724795,12.565158 c 0,-0.01718 -0.0062,-0.03124 -0.013775,-0.03124 -0.00758,0 -0.022463,0.01406 -0.033081,0.03124 -0.010618,0.01718 -0.00442,0.03124 0.013775,0.03124 0.018195,0 0.033081,-0.01406 0.033081,-0.03124 z m 6.5150495,-0.236683 c -0.06975,-0.051 -0.09196,-0.217139 -0.05187,-0.38807 0.02935,-0.125143 0.02618,-0.146261 -0.02887,-0.192433 -0.06584,-0.05523 -0.08235,-0.119944 -0.03059,-0.119944 0.01718,0 0.03124,-0.06505 0.03124,-0.144562 l 0,-0.144561 -0.13276,0.02352 c -0.07302,0.01294 -0.16516,0.02186 -0.204759,0.01982 -0.08429,-0.0043 -0.06716,0.03729 0.05908,0.143512 0.113035,0.09511 0.127224,0.173021 0.0567,0.311344 -0.08018,0.157277 -0.07533,0.209462 0.03431,0.368821 0.05154,0.07491 0.09371,0.15217 0.09371,0.171679 0,0.01951 0.01599,0.06535 0.03553,0.101859 0.03526,0.06588 0.03612,0.0657 0.112757,-0.0234 0.07041,-0.08185 0.07266,-0.09312 0.02552,-0.127592 z m 0.174061,-0.155609 c 0.04807,-0.102618 0.04779,-0.110897 -0.0047,-0.13898 -0.06485,-0.03471 -0.09328,0.01375 -0.09328,0.158975 0,0.120883 0.03536,0.113666 0.09797,-0.01999 z m 0.276662,-0.412078 c 0.02257,-0.04725 0.04368,-0.158903 0.04689,-0.248124 l 0.0058,-0.162222 -0.09654,0.01833 c -0.0531,0.01008 -0.09961,0.02054 -0.103351,0.02325 -0.0037,0.0027 -0.01619,0.0848 -0.02767,0.182437 -0.02979,0.253422 0.08455,0.375276 0.174824,0.186327 z m -9.8410787,-0.52323 c -8.59e-4,-0.441395 -0.09771,-1.029029 -0.1658572,-1.006314 -0.019483,0.0065 -0.061791,0.10011 -0.094019,0.208034 -0.058008,0.194258 -0.057958,0.197522 0.00493,0.325446 0.034941,0.07107 0.081799,0.192476 0.1041285,0.269789 0.02233,0.07731 0.057341,0.173481 0.077801,0.213706 0.020461,0.04022 0.031142,0.131595 0.023737,0.203045 -0.00979,0.09444 -0.00483,0.117117 0.018149,0.08305 0.017387,-0.02577 0.031394,-0.159312 0.031126,-0.296757 z m 3.8085989,-0.01102 c -0.017059,-0.0061 -0.055909,0.01151 -0.086334,0.03905 -0.030425,0.02753 -0.071783,0.05006 -0.091906,0.05006 -0.020123,0 -0.036587,0.022 -0.036587,0.04888 0,0.03774 0.028029,0.02883 0.1229214,-0.03905 0.067607,-0.04836 0.1089644,-0.09289 0.091906,-0.09894 z m -4.2543818,0.05201 c -0.00997,-0.02492 -0.017374,-0.01752 -0.018873,0.01887 -0.00136,0.03293 0.00603,0.05138 0.016407,0.041 0.01038,-0.01038 0.01149,-0.03732 0.00247,-0.05987 z m 10.6826236,-0.06443 c -0.0087,-0.02148 -0.01576,-0.0039 -0.01576,0.03905 0,0.04295 0.0071,0.06052 0.01576,0.03905 0.0087,-0.02148 0.0087,-0.05662 0,-0.07809 z M 6.7331822,11.059421 c 0.1172186,-0.124622 0.080555,-0.115373 -0.071754,0.0181 -0.059848,0.05245 -0.092583,0.113178 -0.061006,0.113178 0.0051,0 0.064846,-0.05908 0.13276,-0.13128 z m -4.2801458,-0.316783 0.2177822,-0.104449 0.087809,-0.270303 c 0.048295,-0.148667 0.079521,-0.283713 0.069391,-0.300103 -0.01013,-0.01639 -0.020356,-0.081379 -0.022726,-0.1444199 -0.00325,-0.086569 0.013481,-0.1280387 0.068381,-0.1694498 l 0.07269,-0.05483 L 2.9042484,9.320337 C 2.8810856,9.1120266 2.8507163,8.9415908 2.8367611,8.9415908 c -0.013955,0 -0.025373,0.040667 -0.025373,0.090372 0,0.1146675 -0.09148,0.5635886 -0.1295828,0.6359035 -0.01731,0.032853 -0.06491,0.054666 -0.1192903,0.054666 -0.1494967,0 -0.2228617,0.1375427 -0.2307045,0.432519 -0.0074,0.278325 -0.074441,0.428513 -0.1790657,0.401152 -0.047915,-0.01253 -0.059738,8.72e-4 -0.059396,0.06734 7.088e-4,0.13792 0.035183,0.223548 0.090002,0.223548 0.028547,0 0.1499058,-0.047 0.2696861,-0.104449 z M 2.3828536,8.5355015 C 2.4553284,8.3431635 2.4580044,8.3126905 2.4336012,7.957605 2.4088916,7.5980601 2.3909257,7.4378812 2.3534804,7.243271 2.3369031,7.157116 2.3300973,7.1629974 2.175536,7.3970433 2.0272574,7.6215754 2.0154026,7.6532673 2.0222567,7.8068103 c 0.00653,0.1463727 1.375e-4,0.1664136 -0.053114,0.1664136 -0.033298,0 -0.073497,-0.023148 -0.089329,-0.05144 -0.023894,-0.042696 -0.042742,-0.027627 -0.1108839,0.088648 -0.141498,0.2414479 -0.09846,0.2433225 0.2215137,0.00965 0.1293919,-0.094494 0.2482408,-0.171807 0.2641086,-0.171807 0.015868,0 0.054779,0.057914 0.08647,0.1286969 L 2.3986414,8.1056674 2.2913742,8.4221066 C 2.1390038,8.8716013 2.0615152,9.171901 2.0627653,9.308059 2.0636712,9.4067197 2.0834727,9.3701532 2.1850952,9.0821602 2.2517822,8.8931725 2.3407735,8.647176 2.3828536,8.5355015 Z M 2.5726858,7.0474041 C 2.5559553,6.7607606 2.5433812,6.679604 2.5288075,6.7642002 c -0.019391,0.1125583 0.028736,0.7235772 0.054929,0.6973838 0.00682,-0.00682 0.00185,-0.1932007 -0.011051,-0.4141799 z m 0.17434,-0.6205608 C 2.7280398,6.1947239 2.6861857,6.0665558 2.686709,6.2421376 c 4.535e-4,0.152172 0.0384,0.4191052 0.059579,0.4191052 0.010951,0 0.011283,-0.1054799 7.378e-4,-0.2343995 z M 11.854686,15.844583 C 11.69126,15.81199 11.183768,15.617566 11.183379,15.5874 c -6.12e-4,-0.0475 0.383866,-0.02144 0.631773,0.04282 0.459926,0.119218 0.858297,0.0093 1.1981,-0.330465 0.179777,-0.179777 0.361079,-0.513288 0.404013,-0.743196 0.01203,-0.06443 0.03273,-0.117141 0.04599,-0.117141 0.02718,0 0.06157,0.110354 0.06222,0.199663 4.15e-4,0.05765 0.161766,0.237664 0.21302,0.237664 0.02915,0 0.130928,-0.200753 0.131195,-0.25877 3.18e-4,-0.06972 0.06662,-0.278359 0.08319,-0.261788 0.009,0.009 0.02193,0.09683 0.02876,0.195199 0.02446,0.352095 -0.09937,0.536608 -0.319969,0.476795 -0.07083,-0.0192 -0.109202,-0.0552 -0.136572,-0.128119 l -0.03807,-0.101411 -0.03971,0.128104 c -0.186257,0.600816 -0.956495,1.0447 -1.592639,0.91783 z M 7.1014818,15.684675 c -0.1119532,-0.03101 -0.3853882,-0.315722 -0.3853882,-0.401286 0,-0.03034 0.036344,-0.120189 0.080765,-0.199667 l 0.080765,-0.144503 -0.1296749,0 c -0.071321,0 -0.1577992,0.01505 -0.1921737,0.03345 -0.034375,0.0184 -0.1283349,0.04522 -0.2088005,0.05961 -0.080466,0.01439 -0.2833439,0.05409 -0.4508405,0.08822 -0.4058276,0.08269 -0.6099006,0.0342 -0.7697383,-0.182906 -0.091128,-0.123779 -0.068164,-0.218698 0.080555,-0.332971 l 0.099595,-0.07653 0.065183,0.143087 c 0.079647,0.174836 0.089095,0.175664 0.590265,0.05172 0.4463966,-0.1104 0.8228349,-0.165868 0.9360485,-0.137926 0.1053834,0.02601 0.281504,0.136907 0.3706437,0.233383 0.1071442,0.115962 0.1339424,0.217833 0.079258,0.301292 -0.064984,0.09918 -0.037064,0.111266 0.1216768,0.05268 0.568757,-0.209908 0.9642883,-0.325241 1.1179878,-0.325995 0.1871779,-9.18e-4 0.3679742,0.08407 0.4974536,0.233833 0.060617,0.07011 0.089763,0.08108 0.171807,0.06463 0.2975124,-0.05965 0.3291617,-0.05949 0.3176294,0.0016 -0.00605,0.03207 -0.012074,0.07497 -0.013388,0.09534 -0.00639,0.09904 -0.363942,0.415904 -0.4693135,0.415904 -0.058336,0 -0.2749528,-0.21717 -0.3278912,-0.328729 -0.028343,-0.05973 -0.062294,-0.108598 -0.075445,-0.108598 -0.034173,0 -0.4881738,0.15719 -0.9259047,0.320579 -0.4319657,0.161236 -0.5249221,0.181448 -0.6610729,0.143739 z m 7.3217862,-1.682586 c -0.04368,-0.03436 -0.09428,-0.06247 -0.112446,-0.06247 -0.01816,0 -0.04756,-0.02717 -0.06533,-0.06038 -0.02564,-0.0479 -0.02102,-0.064 0.02233,-0.07789 0.03005,-0.0096 0.08276,-0.07032 0.117117,-0.134858 0.04905,-0.09214 0.08356,-0.119398 0.16064,-0.126888 0.07792,-0.0076 0.110943,0.0085 0.160113,0.07809 0.153931,0.217747 0.103378,0.446866 -0.0986,0.446866 -0.05742,0 -0.140141,-0.02811 -0.183824,-0.06248 z m 0.102237,-0.170827 c 0,-0.02794 -0.01832,-0.03885 -0.04686,-0.0279 -0.02577,0.0099 -0.04686,0.03053 -0.04686,0.04588 0,0.01534 0.02109,0.0279 0.04686,0.0279 0.02577,0 0.04686,-0.02065 0.04686,-0.04588 z m 0.09924,-0.424915 c -0.133536,-0.07658 -0.175203,-0.08794 -0.211609,-0.05773 -0.02493,0.02069 -0.05369,0.02927 -0.0639,0.01905 -0.02958,-0.02958 -0.01838,-0.248428 0.01755,-0.342915 0.05229,-0.137548 0.117533,-0.138378 0.255912,-0.0033 0.102498,0.100087 0.129167,0.113013 0.153656,0.07447 0.0163,-0.02565 0.02319,-0.0642 0.01532,-0.08568 -0.02552,-0.06962 0.06583,-0.04125 0.100568,0.03124 0.06275,0.130944 0.06699,0.174951 0.02055,0.213494 -0.03214,0.02667 -0.03635,0.04842 -0.01376,0.07101 0.04863,0.04863 0.0393,0.135747 -0.01685,0.157294 -0.07267,0.02789 -0.07664,0.0267 -0.257435,-0.07698 z m 0.03736,-0.161771 c -0.123665,-0.207526 -0.199083,-0.244905 -0.199083,-0.09867 0,0.05092 0.02396,0.08689 0.07029,0.105508 0.103067,0.04143 0.155888,0.03862 0.128798,-0.0068 z m 0.01958,-0.529396 c -0.08135,-0.0509 -0.09592,-0.07133 -0.05693,-0.07983 0.04127,-0.009 0.04863,-0.03463 0.03467,-0.120681 -0.01505,-0.09272 -0.0078,-0.111866 0.04814,-0.126482 0.05842,-0.01528 0.06509,-0.03747 0.05904,-0.196335 -0.0079,-0.208361 0.03644,-0.282683 0.168807,-0.282683 0.05907,0 0.08989,-0.01606 0.08989,-0.04686 0,-0.02577 0.02206,-0.04686 0.04903,-0.04686 0.03298,0 0.04576,0.02301 0.03905,0.07028 -0.0073,0.05119 -0.03436,0.07307 -0.09971,0.08054 l -0.08972,0.01025 0.02159,0.247457 0.02159,0.247458 -0.113068,0 -0.113068,0 0.08345,0.109405 c 0.06845,0.08975 0.07647,0.117811 0.04462,0.156188 -0.05006,0.06032 -0.0574,0.05946 -0.187365,-0.02186 z M 9.4493875,12.286138 c -0.325246,-0.03463 -0.4775258,-0.09127 -0.5694616,-0.211806 -0.043792,-0.05741 -0.074032,-0.10998 -0.067199,-0.116813 0.00683,-0.0068 0.096649,0.0074 0.1995914,0.0316 0.1029424,0.02421 0.2612348,0.04424 0.3517609,0.04451 0.1595968,4.75e-4 0.1640038,-0.0019 0.1451947,-0.0768 l -0.019398,-0.07729 0.1008482,0.05031 c 0.1192747,0.0595 0.6967672,0.08111 0.9863722,0.03691 0.267191,-0.04078 0.566017,-0.146197 0.659175,-0.232534 0.103007,-0.09546 0.151221,-0.0945 0.215959,0.0043 0.04916,0.07503 0.04856,0.08294 -0.01131,0.148379 -0.03478,0.03802 -0.07224,0.0989 -0.08324,0.135288 -0.03292,0.108865 -0.115353,0.158136 -0.362026,0.216382 -0.259863,0.06136 -1.1574145,0.08897 -1.5462635,0.04757 z M 14.37262,12.09264 c -0.03035,-0.08705 -0.02768,-0.09315 0.03665,-0.084 0.08102,0.01152 0.113014,0.132996 0.04218,0.160176 -0.03115,0.01195 -0.05673,-0.01276 -0.07884,-0.07617 z m -3.759878,-0.560965 c -0.0302,-0.01759 -0.06794,-0.02393 -0.08387,-0.01408 -0.01592,0.0098 -0.209097,-0.0049 -0.429271,-0.03286 -0.3132944,-0.03972 -0.5449191,-0.04657 -1.0655244,-0.03148 -0.667496,0.01935 -0.7873414,0.006 -0.7873414,-0.08767 0,-0.03158 0.050712,-0.03899 0.2108541,-0.03077 0.1159697,0.006 0.583363,0.01829 1.0386517,0.02742 0.4552886,0.0091 0.930612,0.02273 1.056274,0.03021 0.257749,0.01535 0.367801,-0.02729 0.539431,-0.208976 0.112838,-0.119452 0.08956,-0.06 -0.04346,0.110998 l -0.09287,0.119381 0.105922,-0.01648 c 0.05826,-0.0091 0.176188,-0.02552 0.262069,-0.03656 0.08588,-0.01104 0.22645,-0.04679 0.312376,-0.07945 0.230026,-0.08743 0.264326,-0.07515 0.13661,0.0489 -0.15801,0.153474 -0.248625,0.179127 -0.62786,0.177746 -0.184307,-6.72e-4 -0.343278,0.012 -0.353267,0.02817 -0.02358,0.03815 -0.109195,0.036 -0.178722,-0.0045 z m 0.506187,-0.937418 c -0.04203,-0.01218 -0.33181,-0.149377 -0.643951,-0.30488 C 10.162837,10.133876 9.8606127,9.9856979 9.8033687,9.9600942 9.7461248,9.9344906 9.6500894,9.8864171 9.5899569,9.8532646 9.5298244,9.8201124 9.4103405,9.7763347 9.3244369,9.7559815 9.1324519,9.7104939 9.0360276,9.6500815 8.988333,9.5454033 c -0.03219,-0.070651 -0.027427,-0.087459 0.040335,-0.1423297 0.067983,-0.05505 0.1060171,-0.059922 0.3301147,-0.042288 0.2267538,0.017843 0.6132928,0.1052749 0.6986513,0.158029 0.06407,0.039597 0.03237,0.080987 -0.03459,0.045154 C 9.9142986,9.5058758 9.5832849,9.419141 9.3801524,9.3955647 9.1835548,9.3727472 9.058917,9.4123056 9.058917,9.4975203 c 0,0.053005 0.2705248,0.1732934 0.3345105,0.1487399 0.041755,-0.016023 0.3376867,0.045631 0.8369015,0.1743598 0.159103,0.041027 0.714198,0.289587 0.828533,0.371 0.164274,0.116974 0.247529,0.08199 0.510741,-0.2146112 L 11.718009,9.8097774 11.708253,9.48495 c -0.0054,-0.178655 -0.0025,-0.3247978 0.0063,-0.3247616 0.03201,1.25e-4 0.220751,0.4247623 0.238642,0.536903 0.01294,0.08113 -3.37e-4,0.1549297 -0.04498,0.2499012 -0.08441,0.1796024 -0.110813,0.2753414 -0.07592,0.2753414 0.03871,0 0.257996,-0.16215 0.331912,-0.2454302 0.03278,-0.036933 0.06815,-0.1197635 0.0786,-0.1840681 l 0.019,-0.1169175 0.07687,0.1243846 c 0.101996,0.1650337 0.101805,0.3293102 -5.09e-4,0.4389812 -0.127972,0.137171 -0.363553,0.240757 -0.511478,0.224899 -0.09442,-0.01012 -0.145054,0.0014 -0.192228,0.04359 -0.07298,0.06534 -0.399491,0.120108 -0.515525,0.08648 z m 0.488186,-0.375693 c 0.02642,-0.04275 -0.03073,-0.03234 -0.09788,0.01783 -0.0585,0.04371 -0.05814,0.04467 0.01014,0.02747 0.03892,-0.0098 0.07841,-0.0302 0.08775,-0.0453 z M 0,7.4938794 0,7.2331987 0.20510809,7.0826136 c 0.11280945,-0.082822 0.27932496,-0.232597 0.37003443,-0.3328343 0.0907095,-0.1002372 0.1753836,-0.1822495 0.1881647,-0.1822495 0.0127811,0 0.0487377,0.03149 0.0799036,0.069979 C 0.97890054,6.8050781 0.8201095,7.1963496 0.50657239,7.4670075 0.33775603,7.6127364 0.10393024,7.7545603 0.03248209,7.7545603 0.01259264,7.7545603 0,7.6534997 0,7.4938794 Z m 11.980549,0.1996813 c -0.01046,-0.016929 0.005,-0.1653777 0.0344,-0.3298848 l 0.05342,-0.2991039 0.252389,-0.2563305 c 0.208354,-0.2116091 0.286784,-0.2691673 0.449537,-0.3299076 0.108432,-0.040468 0.191203,-0.079523 0.183936,-0.08679 -0.0073,-0.00727 -0.111742,0.022328 -0.232166,0.065768 -0.252689,0.09115 -0.289488,0.095522 -0.289488,0.034393 0,-0.05589 0.239841,-0.1686102 0.624752,-0.2936195 0.352683,-0.1145425 0.813869,-0.2327929 0.833061,-0.2136011 0.0075,0.00751 -0.02413,0.043362 -0.07031,0.079683 -0.05251,0.041306 -0.06664,0.066036 -0.03772,0.066036 0.02543,0 0.07176,-0.02821 0.10296,-0.062689 0.0312,-0.034479 0.07204,-0.060338 0.09075,-0.057466 0.01871,0.00287 0.07358,-0.011088 0.12195,-0.031024 0.04837,-0.019936 0.114659,-0.036247 0.147319,-0.036247 0.03266,0 0.108852,-0.023591 0.169316,-0.052424 0.08379,-0.039959 0.122165,-0.086381 0.161371,-0.1952353 0.02829,-0.078546 0.08357,-0.2271529 0.122854,-0.3302372 0.121352,-0.3184749 0.350475,-1.1984794 0.41886,-1.6087387 0.0358,-0.2147588 0.07313,-0.4300461 0.08297,-0.4784164 0.01281,-0.063018 0.006,-0.086318 -0.02409,-0.082203 -0.123607,0.016912 -0.129271,0.00507 -0.109111,-0.2281316 0.01077,-0.1245601 0.02729,-0.3389284 0.03672,-0.4763741 0.0094,-0.1374456 0.03011,-0.4256129 0.04595,-0.6403717 0.04172,-0.5655226 0.06354,-0.99988264 0.06949,-1.38339345 l 0.0052,-0.33693205 0.26662,0.008937 0.266621,0.008937 0.03705,0.21866351 c 0.106233,0.62699732 0.120853,1.33362192 0.0391,1.88987752 -0.06121,0.4165243 -0.199983,0.8968987 -0.279736,0.968367 -0.0096,0.00859 -0.04269,0.050761 -0.07356,0.093713 l -0.05613,0.078094 0.01491,-0.087716 c 0.01117,-0.065729 0.0041,-0.083555 -0.02835,-0.071117 -0.03298,0.012655 -0.03853,-0.00362 -0.02337,-0.068472 0.01861,-0.07963 0.01644,-0.081807 -0.03391,-0.034038 -0.03665,0.034767 -0.06288,0.1343344 -0.0823,0.3123765 -0.05261,0.4823807 -0.248621,1.3673254 -0.423437,1.9117129 -0.0481,0.1497842 -0.04784,0.1516266 0.03299,0.2359917 0.119721,0.1249618 0.110165,0.2622003 -0.02787,0.4002341 -0.06013,0.060132 -0.109332,0.1331405 -0.109332,0.1622396 0,0.039253 -0.04864,0.063699 -0.188462,0.094718 -0.103654,0.022996 -0.219624,0.065673 -0.257711,0.094839 -0.101539,0.077757 -0.185919,0.1023317 -0.211157,0.061496 -0.01612,-0.026074 -0.03902,-0.026385 -0.08614,-0.00117 -0.0353,0.018893 -0.08641,0.025822 -0.113574,0.015398 -0.05527,-0.021208 -0.09696,-0.1469206 -0.06557,-0.1977115 0.03344,-0.054112 -0.02481,-0.039096 -0.331725,0.085507 -0.329547,0.1337918 -0.444712,0.1920569 -0.422842,0.213927 0.0083,0.00825 0.139485,0.035351 0.291624,0.060214 0.349735,0.057155 0.550691,0.1171921 0.568213,0.1697566 0.0096,0.028658 -0.0037,0.034389 -0.04383,0.018982 -0.03163,-0.012139 -0.117893,-0.030347 -0.191688,-0.040461 l -0.134172,-0.018389 -3.13e-4,0.1057685 c -4.12e-4,0.1424989 -0.132001,0.4166749 -0.231166,0.4816507 -0.0442,0.028963 -0.07344,0.063865 -0.06498,0.077561 0.0085,0.013695 -0.06178,0.049173 -0.156092,0.078839 -0.146089,0.045951 -0.193508,0.048309 -0.320225,0.015926 -0.226892,-0.057983 -0.289312,-0.089222 -0.289312,-0.1447905 0,-0.030276 0.01735,-0.04421 0.04286,-0.03442 0.02358,0.00905 0.111431,0.025375 0.195236,0.036285 0.08381,0.01091 0.182043,0.025875 0.218307,0.033254 0.05321,0.010828 0.06443,-3.124e-4 0.05813,-0.057667 -0.0083,-0.075845 0.05416,-0.1850265 0.0989,-0.1728051 0.01482,0.00405 0.05682,-0.00285 0.09333,-0.01532 0.07379,-0.025204 0.276653,-0.3773954 0.245974,-0.4270364 -0.02487,-0.040249 -0.234269,-0.040938 -0.234269,-7.706e-4 0,0.016751 -0.03949,0.022559 -0.08776,0.012905 -0.08484,-0.016968 -0.08732,-0.013822 -0.07465,0.094721 0.0082,0.070511 -0.0058,0.1410866 -0.03765,0.1897377 -0.06606,0.1008245 -0.269115,0.2032196 -0.40299,0.2032196 -0.118763,0 -0.227765,-0.093809 -0.198281,-0.1706434 0.03463,-0.090257 -0.03446,-0.048142 -0.147657,0.089997 -0.0622,0.075909 -0.113094,0.164728 -0.113094,0.1973751 0,0.086223 -0.09045,0.3773704 -0.123604,0.3978598 -0.01555,0.00961 -0.03683,0.00362 -0.04729,-0.013311 z m 0.804973,-0.8424992 c 0.08804,-0.033472 0.121434,-0.098639 0.08268,-0.1613447 -0.02284,-0.036957 -0.04464,-0.034545 -0.136919,0.015152 -0.06036,0.032508 -0.13336,0.085191 -0.162212,0.1170719 -0.05002,0.055274 -0.04798,0.057966 0.04406,0.057966 0.05309,0 0.130661,-0.01298 0.172389,-0.028845 z m 0.58419,-0.5959081 c 0.0571,-0.036902 0.0078,-0.036902 -0.07809,0 -0.0412,0.017702 -0.04651,0.027431 -0.01562,0.028564 0.02577,9.434e-4 0.06794,-0.011909 0.09371,-0.028564 z m -0.859035,1.4457019 c -0.07433,-0.018109 -0.16553,-0.094861 -0.208818,-0.1757458 -0.02929,-0.054727 -0.02088,-0.056946 0.135653,-0.0358 0.09178,0.012399 0.191477,0.035476 0.221543,0.051283 0.06814,0.035824 0.07143,0.1383752 0.0053,0.1637693 -0.05255,0.020167 -0.05686,0.020069 -0.153633,-0.00351 z m 0.438976,-0.03734 c -0.01006,-0.016274 -0.005,-0.037818 0.0113,-0.047875 0.01627,-0.010058 0.03782,-0.00497 0.04787,0.011302 0.01006,0.016274 0.005,0.037818 -0.0113,0.047875 -0.01627,0.010058 -0.03782,0.00497 -0.04788,-0.011302 z M 8.2722319,6.6767295 C 8.2526287,6.6337052 8.246071,6.5890223 8.2576592,6.5774341 8.2963698,6.5387234 8.7826356,6.5173378 8.8303761,6.5522465 8.9055189,6.6071923 8.7806573,6.6901773 8.5712405,6.7244721 8.318079,6.7659311 8.3124666,6.7650349 8.2722319,6.6767295 Z M 7.3720841,6.4151014 c 0,-0.015113 0.1347324,-0.029755 0.2994051,-0.032538 0.2007949,-0.00339 0.292782,0.00566 0.2792954,0.027478 -0.024449,0.039559 -0.5787005,0.044406 -0.5787005,0.00506 z M 7.0332575,6.1692499 c -0.035535,-0.030066 -0.06872,-0.075268 -0.073745,-0.1004494 -0.015802,-0.079187 -0.6222467,-0.4384 -0.7401329,-0.4384 -0.034032,0 -0.071906,-0.016229 -0.084165,-0.036064 -0.013303,-0.021525 -0.00862,-0.027616 0.011617,-0.015109 0.018648,0.011525 0.042735,0.00667 0.053527,-0.010792 0.010791,-0.017461 0.00192,-0.031747 -0.019708,-0.031747 -0.027374,0 -0.029396,-0.00993 -0.00665,-0.032677 0.022744,-0.022744 0.083182,-0.01277 0.1988311,0.032815 0.091385,0.03602 0.2024899,0.05986 0.2468998,0.052976 0.070286,-0.010894 0.067833,-0.013122 -0.018933,-0.017196 -0.054823,-0.00257 -0.1083665,-0.018737 -0.1189848,-0.035918 -0.025251,-0.040857 0.2863411,-0.039817 0.6716093,0.00224 0.1632167,0.017817 0.3650775,0.039118 0.4485798,0.047335 0.083502,0.00822 0.3435554,0.051319 0.5778964,0.095783 0.2343408,0.044464 0.4945563,0.092627 0.578256,0.1070305 0.1919222,0.033026 0.5442572,0.1492981 0.5677882,0.1873724 0.022443,0.036314 0.027436,0.036907 -0.1548475,-0.018391 -0.2136873,-0.064824 -0.2424675,-0.057336 -0.096558,0.025124 0.1521785,0.086003 0.1912006,0.2094959 0.066198,0.2094959 -0.043294,0 -0.2135967,-0.048825 -0.3784503,-0.1084993 C 8.47456,5.9800269 8.0932358,5.8788997 7.8215289,5.8346903 7.6969007,5.8144121 7.6925015,5.8166678 7.6737423,5.9104635 7.6264217,6.1470677 7.2072243,6.3164429 7.0332575,6.1692493 Z M 7.3255966,5.8303311 7.4121177,5.7736401 7.3218162,5.7493613 C 7.2126388,5.7200076 6.684856,5.6847806 6.684856,5.7068471 c 0,0.00861 0.045685,0.040228 0.1015223,0.070252 0.261664,0.1407012 0.3868601,0.1530604 0.5392183,0.053232 z M 5.9663901,5.5660816 c 0,-0.018195 0.014057,-0.024394 0.031238,-0.013775 0.017181,0.010618 0.031238,0.025505 0.031238,0.033081 0,0.00758 -0.014057,0.013775 -0.031238,0.013775 -0.017181,0 -0.031238,-0.014887 -0.031238,-0.033081 z M 0,5.4089912 0,5.2812948 0.13275999,5.3033533 c 0.1684127,0.027982 0.29342841,0.091678 0.33597771,0.1711823 0.0319223,0.059647 0.0231477,0.062152 -0.21773748,0.062152 L 0,5.5366876 0,5.4089912 Z m 1.6449954,-0.0096 C 1.6150111,5.3536325 1.5103216,5.2918469 1.3754271,5.2403007 1.0071547,5.0995761 1.0071109,5.0000639 1.3752209,4.7713653 1.7396446,4.5449567 1.7417799,4.4508192 1.3866786,4.2662141 1.186972,4.1623933 1.2081184,4.1447306 1.0436874,4.5527018 0.9800254,4.7106543 0.9225105,4.915965 0.91242555,5.0212664 0.89847922,5.1668863 0.88947553,5.1912733 0.87205983,5.1305982 0.80742905,4.9054298 0.87826028,4.5265568 1.0314741,4.2778983 L 1.1238078,4.128045 0.91802133,4.035715 C 0.70836242,3.9416475 0.51724057,3.8220042 0.54010637,3.7991386 0.56614361,3.7731011 0.99277208,3.9224445 1.2322003,4.041409 1.5497845,4.1992069 1.7345078,4.3507295 1.780986,4.4915597 c 0.049556,0.1501565 0.00272,0.2147594 -0.2943777,0.4060216 -0.1304062,0.083952 -0.2367081,0.1601826 -0.2362264,0.1694005 4.817e-4,0.00922 0.08741,0.072988 0.1931744,0.1417105 0.1612137,0.1047523 0.3224526,0.26552 0.2662984,0.26552 -0.00871,0 -0.037897,-0.033668 -0.064859,-0.074818 z M 9.3869122,5.2559043 C 8.9106103,5.1275819 7.0545504,4.7395941 6.065604,4.5616235 5.9424255,4.5394564 5.9036927,4.5202427 5.916245,4.4875325 c 0.00932,-0.024289 0.0025,-0.044163 -0.015154,-0.044163 -0.017656,0 -0.023252,-0.014317 -0.012437,-0.031816 0.020126,-0.032564 0.2133297,-0.017005 0.5775387,0.046512 0.042952,0.00749 0.1483789,0.022358 0.2342824,0.033038 0.4431831,0.0551 0.5919593,0.0769 0.9215105,0.1350225 0.1975781,0.034847 0.4576315,0.083954 0.5778964,0.1091269 0.120265,0.025173 0.2748913,0.053549 0.3436141,0.063059 0.1582371,0.021897 0.6936182,0.1338283 0.9302639,0.194489 0.2415804,0.061926 0.3403304,0.1097244 0.3225284,0.1561158 -0.00841,0.021907 0.021292,0.048303 0.069078,0.061396 l 0.083824,0.022968 -0.078094,0.023639 C 9.7680093,5.288124 9.5044526,5.2875714 9.3869122,5.2559046 Z M 1.7982854,3.925607 C 1.7712263,3.898548 1.7076626,3.8162003 1.6570325,3.7426122 1.6064025,3.6690241 1.5237776,3.5917497 1.4734216,3.5708917 1.4230656,3.5500333 1.3570219,3.4868365 1.3266579,3.4304538 1.2554359,3.2982026 1.2814622,3.2209179 1.5158343,2.8686978 L 1.6928742,2.6026378 1.637729,2.4582424 C 1.5886002,2.3296004 1.5866184,2.282615 1.6195642,2.0275802 1.6717948,1.6232614 1.7958216,1.280805 1.9528301,1.1073835 2.070312,0.97762081 2.084784,0.97037961 2.1478862,1.0097878 c 0.037488,0.023411 0.084266,0.081452 0.103953,0.1289796 0.031573,0.076223 0.020652,0.1186883 -0.092608,0.3600988 -0.1278888,0.2725916 -0.222497,0.5789301 -0.222497,0.7204388 0,0.063928 0.018762,0.050918 0.1333514,-0.092467 0.1960741,-0.2453451 0.292281,-0.3795939 0.309858,-0.4323811 0.00858,-0.025771 0.02548,0.031115 0.037552,0.1264137 0.012073,0.095299 0.011791,0.2007259 -6.266e-4,0.2342824 C 2.3965482,2.1100695 2.2660943,2.3071025 1.8898775,2.8511029 1.718861,3.0983885 1.606872,3.3117417 1.6339008,3.3387707 c 0.012363,0.012363 0.071502,-8.997e-4 0.1314184,-0.029471 0.1109901,-0.052927 0.1240806,-0.044447 0.1111303,0.07199 -0.00287,0.025771 -0.056524,0.09137 -0.1192394,0.1457761 l -0.114028,0.09892 0.1155383,0.1482985 C 1.8964709,3.9510932 1.9222083,4.0495302 1.7982854,3.925607 Z M 2.0468001,3.5691611 C 2.0640079,3.4331924 2.2111079,3.2355259 2.4864312,2.9784041 2.6582323,2.8179607 2.7415287,2.7598934 2.7771203,2.7757596 c 0.027438,0.012231 0.080812,0.023452 0.1186094,0.024936 0.043404,0.00171 0.05779,0.013631 0.039047,0.032374 -0.016322,0.016322 -0.029676,0.073211 -0.029676,0.1264203 0,0.071469 -0.030604,0.1254014 -0.1171412,0.2064303 -0.1734721,0.162431 -0.4438005,0.3561756 -0.5857059,0.4197755 -0.068723,0.030801 -0.1344967,0.06088 -0.1461641,0.066842 -0.011668,0.00596 -0.015848,-0.031557 -0.00929,-0.083377 z M 14.920695,3.4565375 C 14.744975,3.3371329 14.503374,3.2330531 14.193141,3.1431134 13.907317,3.0602502 13.762092,2.9971917 13.689194,2.9242933 c -0.02354,-0.023543 -0.06117,-0.042806 -0.08361,-0.042806 -0.02244,0 -0.0583,-0.021085 -0.07969,-0.046857 -0.0456,-0.054948 -0.0092,-0.060682 0.106357,-0.01675 0.04355,0.016559 0.265241,0.072814 0.492641,0.1250124 0.454857,0.1044093 0.736065,0.2207364 0.895045,0.3702517 0.09817,0.092326 0.121998,0.190708 0.05185,0.2140597 -0.01739,0.00579 -0.08538,-0.026013 -0.151094,-0.070668 z M 12.932385,2.7125427 C 12.82071,2.6724495 12.642054,2.6039069 12.535372,2.5602255 12.349315,2.484044 11.713311,2.300313 11.386121,2.2282258 9.2500007,1.7575904 7.5489005,1.6536531 5.7497705,1.8838446 4.8706923,1.9963188 4.494357,2.0750289 3.342428,2.3873367 3.1801394,2.4313355 3.0004188,2.4522257 2.7575809,2.455317 2.4320461,2.4594609 2.4108579,2.4561323 2.4608233,2.4086951 2.4904172,2.3805987 2.598972,2.3271455 2.7020563,2.2899099 3.2266909,2.1004045 3.5240308,2.0055542 3.742148,1.9581249 3.8745066,1.9293437 4.0601129,1.8851347 4.1546067,1.8598825 4.2491006,1.83463 4.3824879,1.8003101 4.4510226,1.7836158 4.6373961,1.7382168 5.6495002,1.5695067 5.7354777,1.5695067 c 0.059076,0 0.074724,-0.016516 0.074724,-0.078867 0,-0.094346 -0.023064,-0.1041382 -0.4745329,-0.201456 C 5.0777176,1.2335796 4.976402,1.1963374 4.8905325,1.1255564 4.7620209,1.0196264 4.740147,0.92804479 4.8496443,0.95436532 c 0.038657,0.009292 0.1757118,0.0443418 0.3045671,0.0778883 0.1288553,0.033547 0.3281755,0.083008 0.4429338,0.1099152 0.2479145,0.058127 0.4431042,0.1733843 0.5088104,0.3004456 0.030383,0.058754 0.067471,0.088475 0.1024123,0.082071 0.1875342,-0.034373 1.444855,-0.090863 1.444855,-0.064916 0,0.053028 -0.099387,0.1097838 -0.1930039,0.1102151 -0.057065,2.499e-4 -0.1198967,0.010806 -0.1396273,0.023428 -0.01973,0.012622 0.2707757,0.025364 0.6455697,0.028313 0.8687326,0.00684 1.7362395,0.089681 2.5453056,0.2430654 0.595265,0.1128513 1.801961,0.4374495 2.037083,0.5479701 0.07329,0.03445 0.16152,0.062636 0.196069,0.062636 0.03455,0 0.06282,0.011774 0.06282,0.026164 0,0.01439 0.08083,0.051913 0.179617,0.083384 0.09879,0.031471 0.233814,0.079285 0.300055,0.1062527 0.112631,0.045854 0.115668,0.050372 0.04686,0.06969 -0.125033,0.035102 -0.191391,0.027113 -0.401577,-0.048347 z M 0.00619154,1.4757938 0.00188078,0.55428325 0.09953378,0.77294676 C 0.21621392,1.0342156 0.25897177,1.196175 0.20589,1.1758055 0.17246521,1.1629794 0.04798936,1.8966942 0.01985894,2.2723537 0.01471278,2.3410765 0.00856245,1.9826246 0.00619154,1.4757938 Z M 1.0860027,2.1942596 C 1.0591585,2.132663 1.0046578,1.5762312 0.98503505,1.1634173 0.97646,0.98301992 0.96192372,0.67728147 0.9527322,0.48399855 l -0.0167118,-0.3514235 0.10988623,0 0.1098863,0 0,0.44795688 c 0,0.2463763 0.00817,0.68565567 0.018163,0.97617637 0.012361,0.359475 0.00809,0.5138221 -0.013374,0.4831514 -0.023972,-0.034258 -0.03425,-0.015525 -0.042848,0.078094 -0.00672,0.073215 -0.019592,0.1041598 -0.031731,0.076306 z M 13.523246,1.913639 c -0.27654,-0.1461803 -0.386837,-0.4896513 -0.216009,-0.6726649 0.103537,-0.1109226 0.216685,-0.1893229 0.312376,-0.2164462 0.07035,-0.019941 0.06876,-0.016188 -0.01612,0.037857 -0.246876,0.1571953 -0.360359,0.3589099 -0.282753,0.5025909 0.05308,0.098265 0.194734,0.1941916 0.315779,0.2138345 0.105305,0.017089 0.122474,0.00665 0.305052,-0.1854529 0.257017,-0.2704259 0.36975,-0.3359643 0.578147,-0.3361108 0.2643,-1.874e-4 0.567409,0.1573496 0.446513,0.2320673 -0.01531,0.00946 -0.09421,-0.01215 -0.175328,-0.048032 -0.2817,-0.1246094 -0.498716,-0.032907 -0.723482,0.3057175 -0.158028,0.2380793 -0.316954,0.2867466 -0.544171,0.1666391 z M 10.993854,0.54548954 C 10.865425,0.46291439 10.652037,0.2208014 10.652037,0.15765887 c 0,-0.0137961 0.06194,-0.0250838 0.137639,-0.0250838 0.129381,0 0.144372,0.009372 0.249849,0.15618822 0.06172,0.0859035 0.130191,0.15618822 0.152168,0.15618822 0.0842,0 0.376038,-0.24000632 0.347663,-0.28591878 -0.009,-0.0145518 0.153161,-0.0264577 0.360343,-0.0264577 0.207182,0 0.376695,0.006522 0.376695,0.0144927 0,0.007971 -0.05246,0.0501417 -0.116583,0.0937129 -0.132041,0.0897242 -0.240852,0.10109908 -0.309587,0.0323638 -0.0655,-0.065501 -0.09515,-0.0586112 -0.116662,0.0271143 -0.01021,0.0406839 -0.08357,0.12723811 -0.163023,0.19234268 -0.201041,0.16473827 -0.377548,0.18092593 -0.576685,0.0528881 z M 4.8254336,0.38058664 C 4.7734613,0.36546574 4.6828478,0.30347714 4.6240707,0.24283456 4.5189832,0.13441182 4.5184756,0.13259348 4.5936153,0.13368211 c 0.042027,6.0913e-4 0.1115549,0.021196 0.1545067,0.0457494 0.1018975,0.0582501 0.2867456,0.0582501 0.5103822,0 0.098942,-0.025771 0.2951779,-0.0466197 0.4360806,-0.0463301 l 0.2561865,5.2479e-4 -0.1013465,0.0649056 C 5.5712333,0.3766938 5.1000112,0.4604716 4.8254336,0.38058539 Z"
     id="path3592"
     inkscape:connector-curvature="0" />
</svg>
